<?xml version="1.0" encoding="utf-8"?>
<!-- Generator: Adobe Illustrator 25.0.1, SVG Export Plug-In . SVG Version: 6.00 Build 0)  -->
<svg version="1.1" id="Layer_1" xmlns="http://www.w3.org/2000/svg" xmlns:xlink="http://www.w3.org/1999/xlink" x="0px" y="0px"
	 viewBox="0 0 400 400" style="enable-background:new 0 0 400 400;" xml:space="preserve">
<style type="text/css">
	.st0{clip-path:url(#SVGID_2_);fill:url(#SVGID_3_);}
	.st1{clip-path:url(#SVGID_5_);fill:url(#SVGID_6_);}
</style>
<g>
	<defs>
		<rect id="SVGID_1_" x="0.1" y="0.01" width="399.95" height="399.95"/>
	</defs>
	<clipPath id="SVGID_2_">
		<use xlink:href="#SVGID_1_"  style="overflow:visible;"/>
	</clipPath>
	<linearGradient id="SVGID_3_" gradientUnits="userSpaceOnUse" x1="200.0728" y1="405.0106" x2="200.0728" y2="323.7242">
		<stop  offset="0" style="stop-color:#D9DEE2"/>
		<stop  offset="1" style="stop-color:#FDFDFD"/>
	</linearGradient>
	<rect x="0.1" y="0.01" class="st0" width="399.95" height="399.95"/>
</g>
<g>
	<defs>
		<path id="SVGID_4_" d="M142.94,333.61c-11.1,0-20.18-9.08-20.18-20.18v-57c0-26.55,40.36-26.55,40.36,0v57
			C163.12,324.53,154.04,333.61,142.94,333.61 M199.99,317.36c-11.1,0-20.18-9.08-20.18-20.18v-106.8c0-26.55,40.37-26.54,40.37,0
			v106.8C220.18,308.27,211.1,317.36,199.99,317.36z M199.99,154.17c-26.57,0-26.57-40.37,0-40.37
			C226.57,113.81,226.57,154.17,199.99,154.17z M261.74,66.39c11.1,0,20.18,9.09,20.18,20.19v269.91c0,26.55-40.37,26.55-40.37,0
			V86.58C241.55,75.47,250.64,66.39,261.74,66.39z M261.74,10c26.57,0,26.57,40.37,0,40.37C235.17,50.37,235.17,10,261.74,10z
			 M323.47,141c11.1,0,20.18,9.09,20.18,20.18v117.89c0,26.55-40.37,26.55-40.37,0V161.18C303.28,150.08,312.37,141,323.47,141z
			 M323.47,84.61c26.57,0,26.57,40.36,0,40.36C296.9,124.98,296.9,84.61,323.47,84.61z M76.53,219.29c11.1,0,20.19,9.09,20.19,20.18
			v40.3c0,26.54-40.37,26.55-40.37,0v-40.3C56.35,228.37,65.43,219.29,76.53,219.29z M76.53,162.9c26.58,0,26.58,40.36,0,40.36
			C49.96,203.26,49.96,162.9,76.53,162.9z M142.94,390c-26.58,0-26.58-40.37,0-40.37C169.51,349.63,169.51,390,142.94,390z"/>
	</defs>
	<clipPath id="SVGID_5_">
		<use xlink:href="#SVGID_4_"  style="overflow:visible;"/>
	</clipPath>
	<linearGradient id="SVGID_6_" gradientUnits="userSpaceOnUse" x1="105.2952" y1="305.9168" x2="338.7084" y2="44.8666">
		<stop  offset="0" style="stop-color:#3FA025"/>
		<stop  offset="1" style="stop-color:#E2DE02"/>
	</linearGradient>
	<rect x="49.96" y="10" class="st1" width="300.08" height="380"/>
</g>
</svg>
